<?xml version="1.0" encoding="UTF-8"?>
<svg width="8px" height="12px" viewBox="0 0 8 12" version="1.1" xmlns="http://www.w3.org/2000/svg" xmlns:xlink="http://www.w3.org/1999/xlink">
    <title>3263D563-DC60-4EB8-8275-710194098275</title>
    <g id="FE-Assignments" stroke="none" stroke-width="1" fill="none" fill-rule="evenodd">
        <g id="FE1" transform="translate(-814.000000, -252.000000)" fill-rule="nonzero">
            <g id="Errors" transform="translate(280.000000, 100.000000)">
                <g id="Column-OS/Browser" transform="translate(448.000000, 147.000000)">
                    <g id="sort-down" transform="translate(86.674838, 5.976562)">
                        <path d="M0.0811703355,3.74379161 L3.09733015,0.105445822 C3.22315859,-0.0351486073 3.4435445,-0.0351486073 3.56937294,0.105445822 L6.57064181,3.74379161 C6.75231128,3.94761634 6.60786916,4.27046281 6.33462042,4.27046281 L0.316447181,4.27046281 C0.0439429865,4.27046281 -0.101243675,3.94761634 0.0811703355,3.74379161 Z" id="Shape" fill="#9BA4B0"></path>
                        <path d="M0.0811703355,9.5202055 L3.09733015,5.88185971 C3.22315859,5.74126529 3.4435445,5.74126529 3.56937294,5.88185971 L6.57064181,9.5202055 C6.75231128,9.72403023 6.60786916,10.0468767 6.33462042,10.0468767 L0.316447181,10.0468767 C0.0439429865,10.0468767 -0.101243675,9.72403023 0.0811703355,9.5202055 Z" id="Shape" fill="#FF6C61" transform="translate(3.325731, 7.911645) scale(1, -1) translate(-3.325731, -7.911645) "></path>
                    </g>
                </g>
            </g>
        </g>
    </g>
</svg>